<svg width="475" height="475" xmlns="http://www.w3.org/2000/svg" xmlns:xlink="http://www.w3.org/1999/xlink" xml:space="preserve" overflow="hidden"><g><path d="M237.5 49.4792C133.594 49.4792 49.4792 133.594 49.4792 237.5 49.4792 341.406 133.594 425.521 237.5 425.521 341.406 425.521 425.521 341.406 425.521 237.5 425.521 133.594 341.406 49.4792 237.5 49.4792ZM227.604 98.9583C241.458 98.9583 252.344 109.844 252.344 123.698 252.344 137.552 241.458 148.438 227.604 148.438 213.75 148.438 202.865 137.552 202.865 123.698 202.865 109.844 213.75 98.9583 227.604 98.9583ZM286.979 376.042 188.021 376.042 188.021 346.354 222.656 346.354 222.656 197.917 192.969 197.917 192.969 168.229 252.344 168.229 252.344 197.917 252.344 346.354 286.979 346.354 286.979 376.042Z" fill="#196B24"/></g></svg>