<svg width="261" height="261" xmlns="http://www.w3.org/2000/svg" xmlns:xlink="http://www.w3.org/1999/xlink" xml:space="preserve" overflow="hidden"><g><path d="M130.459 27.1875C73.4313 27.186 27.2 73.415 27.1984 130.443 27.1967 187.471 73.4258 233.702 130.454 233.704 187.482 233.705 233.713 187.476 233.715 130.448 233.715 130.445 233.715 130.441 233.715 130.437 233.736 73.4351 187.543 27.2084 130.541 27.1875 130.514 27.1875 130.486 27.1875 130.459 27.1875ZM176.596 163.584 163.598 176.583 130.459 143.439 97.3312 176.577 84.3329 163.579 117.45 130.437 84.3193 97.2986 97.3312 84.3003 130.459 117.45 163.598 84.3003 176.596 97.2986 143.458 130.437Z" fill="#13501B"/></g></svg>